# This file uses meters as units for non-parametric coordinates.

mtllib cube.mtl
g default
v 0.190281 -0.956612 0.000000
v 0.732159 -1.767586 0.000000
v 1.543137 -2.309467 0.000000
v 2.499748 -2.499748 0.000000
v 2.499748 -2.309467 0.956612
v 2.499748 -1.767586 1.767590
v 2.499748 -0.956612 2.309467
v 2.499748 0.000000 2.499748
v 1.543137 0.000000 2.309467
v 0.732159 0.000000 1.767590
v 0.190281 0.000000 0.956612
v 0.000000 0.000000 0.000000
v 98.456863 -2.309467 0.000000
v 99.267838 -1.767586 0.000000
v 99.809723 -0.956612 0.000000
v 100.000000 0.000000 0.000000
v 99.809723 0.000000 0.956612
v 99.267838 0.000000 1.767590
v 98.456863 0.000000 2.309467
v 97.500252 0.000000 2.499748
v 97.500252 -0.956612 2.309467
v 97.500252 -1.767586 1.767590
v 97.500252 -2.309467 0.956612
v 97.500252 -2.499748 0.000000
v 1.543137 97.309967 0.000000
v 0.732159 96.768089 0.000000
v 0.190281 95.957115 0.000000
v 0.000000 95.000504 0.000000
v 0.190281 95.000504 0.956612
v 0.732159 95.000504 1.767590
v 1.543137 95.000504 2.309467
v 2.499748 95.000504 2.499748
v 2.499748 95.957115 2.309467
v 2.499748 96.768089 1.767590
v 2.499748 97.309967 0.956612
v 2.499748 97.500252 0.000000
v 99.809723 95.957115 0.000000
v 99.267838 96.768089 0.000000
v 98.456863 97.309967 0.000000
v 97.500252 97.500252 0.000000
v 97.500252 97.309967 0.956612
v 97.500252 96.768089 1.767590
v 97.500252 95.957115 2.309467
v 97.500252 95.000504 2.499748
v 98.456863 95.000504 2.309467
v 99.267838 95.000504 1.767590
v 99.809723 95.000504 0.956612
v 100.000000 95.000504 0.000000
v 1.543137 95.000504 -97.309967
v 0.732159 95.000504 -96.768097
v 0.190281 95.000504 -95.957115
v 0.000000 95.000504 -95.000504
v 0.190281 95.957115 -95.000504
v 0.732159 96.768089 -95.000504
v 1.543137 97.309967 -95.000504
v 2.499748 97.500252 -95.000504
v 2.499748 97.309967 -95.957115
v 2.499748 96.768089 -96.768097
v 2.499748 95.957115 -97.309967
v 2.499748 95.000504 -97.500252
v 99.809723 95.000504 -95.957115
v 99.267838 95.000504 -96.768097
v 98.456863 95.000504 -97.309967
v 97.500252 95.000504 -97.500252
v 97.500252 95.957115 -97.309967
v 97.500252 96.768089 -96.768097
v 97.500252 97.309967 -95.957115
v 97.500252 97.500252 -95.000504
v 98.456863 97.309967 -95.000504
v 99.267838 96.768089 -95.000504
v 99.809723 95.957115 -95.000504
v 100.000000 95.000504 -95.000504
v 1.543137 -2.309467 -95.000504
v 0.732159 -1.767586 -95.000504
v 0.190281 -0.956612 -95.000504
v 0.000000 0.000000 -95.000504
v 0.190281 0.000000 -95.957115
v 0.732159 0.000000 -96.768097
v 1.543137 0.000000 -97.309967
v 2.499748 0.000000 -97.500252
v 2.499748 -0.956612 -97.309967
v 2.499748 -1.767586 -96.768097
v 2.499748 -2.309467 -95.957115
v 2.499748 -2.499748 -95.000504
v 99.809723 -0.956612 -95.000504
v 99.267838 -1.767586 -95.000504
v 98.456863 -2.309467 -95.000504
v 97.500252 -2.499748 -95.000504
v 97.500252 -2.309467 -95.957115
v 97.500252 -1.767586 -96.768097
v 97.500252 -0.956612 -97.309967
v 97.500252 0.000000 -97.500252
v 98.456863 0.000000 -97.309967
v 99.267838 0.000000 -96.768097
v 99.809723 0.000000 -95.957115
v 100.000000 0.000000 -95.000504
v 0.318810 -0.862831 0.862831
v 0.811245 -1.688503 0.732555
v 1.636917 -2.180939 0.862831
v 1.767193 -1.688503 1.688503
v 1.636917 -0.862831 2.180939
v 0.811245 -0.732552 1.688503
v 1.057022 -1.442726 1.442726
v 98.363083 -2.180939 0.862831
v 99.188751 -1.688503 0.732555
v 99.681190 -0.862831 0.862831
v 99.188751 -0.732552 1.688503
v 98.363083 -0.862831 2.180939
v 98.232803 -1.688503 1.688503
v 98.942978 -1.442726 1.442726
v 1.636917 97.181442 0.862831
v 0.811245 96.689011 0.732555
v 0.318810 95.863335 0.862831
v 0.811245 95.733055 1.688503
v 1.636917 95.863335 2.180939
v 1.767193 96.689011 1.688503
v 1.057022 96.443230 1.442726
v 99.681190 95.863335 0.862831
v 99.188751 96.689011 0.732555
v 98.363083 97.181442 0.862831
v 98.232803 96.689011 1.688503
v 98.363083 95.863335 2.180939
v 99.188751 95.733055 1.688503
v 98.942978 96.443230 1.442726
v 1.636917 95.863335 -97.181442
v 0.811245 95.733055 -96.689011
v 0.318810 95.863335 -95.863335
v 0.811245 96.689011 -95.733063
v 1.636917 97.181442 -95.863335
v 1.767193 96.689011 -96.689011
v 1.057022 96.443230 -96.443230
v 99.681190 95.863335 -95.863335
v 99.188751 95.733055 -96.689011
v 98.363083 95.863335 -97.181442
v 98.232803 96.689011 -96.689011
v 98.363083 97.181442 -95.863335
v 99.188751 96.689011 -95.733063
v 98.942978 96.443230 -96.443230
v 1.636917 -2.180939 -95.863335
v 0.811245 -1.688503 -95.733063
v 0.318810 -0.862831 -95.863335
v 0.811245 -0.732552 -96.689011
v 1.636917 -0.862831 -97.181442
v 1.767193 -1.688503 -96.689011
v 1.057022 -1.442726 -96.443230
v 99.681190 -0.862831 -95.863335
v 99.188751 -1.688503 -95.733063
v 98.363083 -2.180939 -95.863335
v 98.232803 -1.688503 -96.689011
v 98.363083 -0.862831 -97.181442
v 99.188751 -0.732552 -96.689011
v 98.942978 -1.442726 -96.443230
vt 0.381249 0.993751
vt 0.381249 0.006249
vt 0.618751 0.993751
vt 0.631249 0.006249
vt 0.381249 0.243751
vt 0.618751 0.243751
vt 0.631249 0.243751
vt 0.131249 0.006249
vt 0.381249 0.493751
vt 0.618751 0.493751
vt 0.868751 0.243751
vt 0.868751 0.006249
vt 0.618751 0.756249
vt 0.381249 0.743751
vt 0.618751 0.743751
vt 0.618751 0.006249
vt 0.381249 0.256249
vt 0.618751 0.256249
vt 0.381249 0.506249
vt 0.618751 0.506249
vt 0.381249 0.756249
vt 0.368751 0.006249
vt 0.368751 0.243751
vt 0.131249 0.243751
vt 0.369924 0.003125
vt 0.375000 0.996095
vt 0.371095 -0.000000
vt 0.378119 0.994924
vt 0.380076 0.996881
vt 0.378905 -0.000000
vt 0.378905 1.000000
vt 0.380076 0.003126
vt 0.378119 0.006225
vt 0.375000 0.006214
vt 0.371881 0.006225
vt 0.621881 0.994924
vt 0.628905 -0.000000
vt 0.625000 0.996095
vt 0.630076 0.003126
vt 0.628119 0.006225
vt 0.625000 0.006214
vt 0.621881 0.006225
vt 0.619924 0.003125
vt 0.621095 1.000000
vt 0.621095 -0.000000
vt 0.619924 0.996881
vt 0.378125 0.255076
vt 0.371095 0.250000
vt 0.375000 0.253905
vt 0.369924 0.246874
vt 0.371886 0.243775
vt 0.375009 0.243785
vt 0.378131 0.243775
vt 0.381225 0.246870
vt 0.381215 0.249991
vt 0.381225 0.253114
vt 0.630076 0.246875
vt 0.625000 0.253905
vt 0.628905 0.250000
vt 0.621874 0.255076
vt 0.618775 0.253114
vt 0.618785 0.249991
vt 0.618775 0.246869
vt 0.621870 0.243775
vt 0.624991 0.243785
vt 0.628114 0.243775
vt 0.378125 0.505076
vt 0.125000 0.246095
vt 0.375000 0.503905
vt 0.128119 0.244924
vt 0.130076 0.246881
vt 0.375000 0.496095
vt 0.128905 0.250000
vt 0.378126 0.494924
vt 0.381225 0.496881
vt 0.381214 0.500000
vt 0.381225 0.503119
vt 0.871881 0.244924
vt 0.625000 0.503905
vt 0.875000 0.246095
vt 0.621874 0.505076
vt 0.618775 0.503119
vt 0.618786 0.500000
vt 0.618775 0.496881
vt 0.621875 0.494924
vt 0.871095 0.250000
vt 0.625000 0.496095
vt 0.869924 0.246881
vt 0.378125 0.755076
vt 0.128905 -0.000000
vt 0.375000 0.753905
vt 0.130076 0.003119
vt 0.128119 0.005076
vt 0.375000 0.746095
vt 0.125000 0.003905
vt 0.378126 0.744924
vt 0.381225 0.746881
vt 0.381214 0.750000
vt 0.381225 0.753119
vt 0.869924 0.003119
vt 0.625000 0.753905
vt 0.871095 -0.000000
vt 0.621874 0.755076
vt 0.618775 0.753119
vt 0.618786 0.750000
vt 0.618775 0.746881
vt 0.621875 0.744924
vt 0.875000 0.003905
vt 0.625000 0.746095
vt 0.871881 0.005076
vt 0.372259 0.003329
vt 0.375000 0.997984
vt 0.372984 -0.000000
vt 0.377742 0.997263
vt 0.377016 -0.000000
vt 0.377016 1.000000
vt 0.377739 0.003329
vt 0.375007 0.003547
vt 0.375000 1.000000
vt 0.375000 0.000000
vt 0.622263 0.997258
vt 0.627016 -0.000000
vt 0.625000 0.997984
vt 0.627739 0.003329
vt 0.625007 0.003547
vt 0.622259 0.003329
vt 0.622984 1.000000
vt 0.622984 -0.000000
vt 0.625000 0.000000
vt 0.625000 1.000000
vt 0.378330 0.252716
vt 0.372984 0.250000
vt 0.375000 0.252016
vt 0.372286 0.246670
vt 0.375121 0.246448
vt 0.378356 0.246647
vt 0.378552 0.249879
vt 0.375000 0.250000
vt 0.627716 0.246670
vt 0.625000 0.252016
vt 0.627016 0.250000
vt 0.621670 0.252714
vt 0.621448 0.249879
vt 0.621647 0.246644
vt 0.624879 0.246448
vt 0.625000 0.250000
vt 0.378329 0.502741
vt 0.125000 0.247984
vt 0.375000 0.502016
vt 0.127742 0.247263
vt 0.375000 0.497984
vt 0.127016 0.250000
vt 0.378329 0.497261
vt 0.378547 0.499993
vt 0.125000 0.250000
vt 0.375000 0.500000
vt 0.872263 0.247258
vt 0.625000 0.502016
vt 0.875000 0.247984
vt 0.621671 0.502739
vt 0.621453 0.500007
vt 0.621671 0.497259
vt 0.872984 0.250000
vt 0.625000 0.497984
vt 0.625000 0.500000
vt 0.875000 0.250000
vt 0.378329 0.752741
vt 0.127016 -0.000000
vt 0.375000 0.752016
vt 0.127737 0.002742
vt 0.375000 0.747984
vt 0.125000 0.002016
vt 0.378329 0.747261
vt 0.378547 0.749993
vt 0.125000 0.000000
vt 0.375000 0.750000
vt 0.872258 0.002737
vt 0.625000 0.752016
vt 0.872984 -0.000000
vt 0.621671 0.752739
vt 0.621453 0.750007
vt 0.621671 0.747259
vt 0.875000 0.002016
vt 0.625000 0.747984
vt 0.625000 0.750000
vt 0.875000 0.000000
vn -0.001979 -0.999996 0.001979
vn -0.382553 -0.923932 0.001502
vn -0.382553 -0.923932 -0.001502
vn -0.001979 -0.999996 -0.001979
vn -0.707106 -0.707106 0.001389
vn -0.707106 -0.707106 -0.001389
vn -0.923933 -0.382552 0.001502
vn -0.923933 -0.382552 -0.001502
vn -0.999996 -0.001979 0.001979
vn -0.999996 -0.001979 -0.001979
vn -0.001979 -0.001979 0.999996
vn -0.001502 -0.382552 0.923933
vn 0.001502 -0.382552 0.923933
vn 0.001979 -0.001979 0.999996
vn -0.001389 -0.707106 0.707106
vn 0.001389 -0.707106 0.707106
vn -0.001502 -0.923932 0.382553
vn 0.001502 -0.923932 0.382553
vn 0.001979 -0.999996 0.001979
vn -0.923933 -0.001502 0.382551
vn -0.923933 0.001502 0.382551
vn -0.999996 0.001979 0.001979
vn -0.707106 -0.001389 0.707106
vn -0.707106 0.001389 0.707106
vn -0.382551 -0.001502 0.923933
vn -0.382551 0.001502 0.923933
vn -0.001979 0.001979 0.999996
vn 0.999996 -0.001979 0.001979
vn 0.923931 -0.382557 0.001502
vn 0.923931 -0.382557 -0.001502
vn 0.999996 -0.001979 -0.001979
vn 0.707105 -0.707107 0.001389
vn 0.707105 -0.707107 -0.001389
vn 0.382555 -0.923932 0.001502
vn 0.382555 -0.923932 -0.001502
vn 0.001979 -0.999996 -0.001979
vn 0.382552 -0.001502 0.923933
vn 0.382552 0.001502 0.923933
vn 0.001979 0.001979 0.999996
vn 0.707105 -0.001389 0.707107
vn 0.707105 0.001389 0.707107
vn 0.923932 -0.001502 0.382553
vn 0.923932 0.001502 0.382553
vn 0.999996 0.001979 0.001979
vn -0.923933 0.382552 0.001502
vn -0.923933 0.382552 -0.001502
vn -0.999996 0.001979 -0.001979
vn -0.707105 0.707107 0.001389
vn -0.707105 0.707107 -0.001389
vn -0.382553 0.923932 0.001502
vn -0.382553 0.923932 -0.001502
vn -0.001979 0.999996 0.001979
vn -0.001979 0.999996 -0.001979
vn -0.001502 0.923933 0.382552
vn 0.001502 0.923933 0.382552
vn 0.001979 0.999996 0.001979
vn -0.001389 0.707107 0.707105
vn 0.001389 0.707107 0.707105
vn -0.001502 0.382551 0.923933
vn 0.001502 0.382551 0.923933
vn 0.382555 0.923932 0.001502
vn 0.382555 0.923932 -0.001502
vn 0.001979 0.999996 -0.001979
vn 0.707104 0.707108 0.001389
vn 0.707104 0.707108 -0.001389
vn 0.923931 0.382557 0.001502
vn 0.923931 0.382557 -0.001502
vn 0.999996 0.001979 -0.001979
vn -0.923933 0.001502 -0.382551
vn -0.923933 -0.001502 -0.382551
vn -0.707105 0.001389 -0.707107
vn -0.707105 -0.001389 -0.707107
vn -0.382552 0.001502 -0.923933
vn -0.382552 -0.001502 -0.923933
vn -0.001979 0.001979 -0.999996
vn -0.001979 -0.001979 -0.999996
vn -0.001502 0.382549 -0.923934
vn 0.001502 0.382549 -0.923934
vn 0.001979 0.001979 -0.999996
vn -0.001389 0.707106 -0.707106
vn 0.001389 0.707106 -0.707106
vn -0.001502 0.923933 -0.382551
vn 0.001502 0.923933 -0.382551
vn 0.382553 0.001502 -0.923932
vn 0.382553 -0.001502 -0.923932
vn 0.001979 -0.001979 -0.999996
vn 0.707104 0.001389 -0.707108
vn 0.707104 -0.001389 -0.707108
vn 0.923932 0.001502 -0.382553
vn 0.923932 -0.001502 -0.382553
vn -0.001502 -0.923933 -0.382552
vn 0.001502 -0.923933 -0.382552
vn -0.001389 -0.707105 -0.707107
vn 0.001389 -0.707105 -0.707107
vn -0.001502 -0.382550 -0.923934
vn 0.001502 -0.382550 -0.923934
vn -0.878771 -0.337462 0.337462
vn -0.673146 -0.673146 0.306186
vn -0.337462 -0.878771 0.337462
vn -0.306186 -0.673146 0.673146
vn -0.337462 -0.337462 0.878771
vn -0.673146 -0.306186 0.673146
vn -0.577351 -0.577349 0.577351
vn 0.337463 -0.878771 0.337463
vn 0.673144 -0.673147 0.306186
vn 0.878770 -0.337464 0.337463
vn 0.673145 -0.306188 0.673146
vn 0.337463 -0.337463 0.878771
vn 0.306187 -0.673143 0.673148
vn 0.577350 -0.577350 0.577350
vn -0.337460 0.878772 0.337461
vn -0.673145 0.673146 0.306186
vn -0.878771 0.337462 0.337462
vn -0.673146 0.306187 0.673145
vn -0.337463 0.337463 0.878771
vn -0.306185 0.673147 0.673145
vn -0.577351 0.577349 0.577351
vn 0.878770 0.337466 0.337462
vn 0.673144 0.673146 0.306188
vn 0.337462 0.878771 0.337464
vn 0.306186 0.673144 0.673148
vn 0.337463 0.337463 0.878770
vn 0.673146 0.306191 0.673143
vn 0.577351 0.577347 0.577352
vn -0.337461 0.337461 -0.878772
vn -0.673145 0.306186 -0.673146
vn -0.878771 0.337462 -0.337462
vn -0.673144 0.673148 -0.306186
vn -0.337462 0.878773 -0.337459
vn -0.306188 0.673145 -0.673145
vn -0.577350 0.577350 -0.577351
vn 0.878771 0.337463 -0.337462
vn 0.673147 0.306185 -0.673145
vn 0.337464 0.337461 -0.878771
vn 0.306190 0.673145 -0.673145
vn 0.337462 0.878771 -0.337462
vn 0.673144 0.673147 -0.306188
vn 0.577352 0.577347 -0.577352
vn -0.337462 -0.878772 -0.337461
vn -0.673142 -0.673149 -0.306187
vn -0.878771 -0.337463 -0.337462
vn -0.673145 -0.306186 -0.673146
vn -0.337460 -0.337461 -0.878772
vn -0.306187 -0.673145 -0.673146
vn -0.577350 -0.577350 -0.577351
vn 0.878769 -0.337466 -0.337463
vn 0.673143 -0.673148 -0.306188
vn 0.337463 -0.878771 -0.337462
vn 0.306187 -0.673145 -0.673146
vn 0.337460 -0.337460 -0.878773
vn 0.673145 -0.306187 -0.673146
vn 0.577351 -0.577348 -0.577352
s 1
g pCube1
usemtl initialShadingGroup
f 4/1/1 3/28/2 73/89/3 84/21/4
f 3/28/2 2/26/5 74/91/6 73/89/3
f 2/27/5 1/25/7 75/92/8 74/90/6
f 1/25/7 12/22/9 76/8/10 75/92/8
f 8/2/11 7/32/12 21/43/13 20/16/14
f 7/32/12 6/30/15 22/45/16 21/43/13
f 6/31/15 5/29/17 23/46/18 22/44/16
f 5/29/17 4/1/1 24/3/19 23/46/18
f 12/22/9 11/35/20 29/51/21 28/23/22
f 11/35/20 10/34/23 30/52/24 29/51/21
f 10/34/23 9/33/25 31/53/26 30/52/24
f 9/33/25 8/2/11 32/5/27 31/53/26
f 16/4/28 15/39/29 85/100/30 96/12/31
f 15/39/29 14/37/32 86/102/33 85/100/30
f 14/38/32 13/36/34 87/103/35 86/101/33
f 13/36/34 24/3/19 88/13/36 87/103/35
f 20/16/14 19/42/37 45/64/38 44/6/39
f 19/42/37 18/41/40 46/65/41 45/64/38
f 18/41/40 17/40/42 47/66/43 46/65/41
f 17/40/42 16/4/28 48/7/44 47/66/43
f 28/23/22 27/50/45 53/71/46 52/24/47
f 27/50/45 26/48/48 54/73/49 53/71/46
f 26/49/48 25/47/50 55/74/51 54/72/49
f 25/47/50 36/17/52 56/9/53 55/74/51
f 36/17/52 35/56/54 41/61/55 40/18/56
f 35/56/54 34/55/57 42/62/58 41/61/55
f 34/55/57 33/54/59 43/63/60 42/62/58
f 33/54/59 32/5/27 44/6/39 43/63/60
f 40/18/56 39/60/61 69/85/62 68/10/63
f 39/60/61 38/58/64 70/87/65 69/85/62
f 38/59/64 37/57/66 71/88/67 70/86/65
f 37/57/66 48/7/44 72/11/68 71/88/67
f 52/24/47 51/70/69 77/93/70 76/8/10
f 51/70/69 50/68/71 78/95/72 77/93/70
f 50/69/71 49/67/73 79/96/74 78/94/72
f 49/67/73 60/19/75 80/14/76 79/96/74
f 60/19/75 59/77/77 65/82/78 64/20/79
f 59/77/77 58/76/80 66/83/81 65/82/78
f 58/76/80 57/75/82 67/84/83 66/83/81
f 57/75/82 56/9/53 68/10/63 67/84/83
f 64/20/79 63/81/84 93/107/85 92/15/86
f 63/81/84 62/79/87 94/109/88 93/107/85
f 62/80/87 61/78/89 95/110/90 94/108/88
f 61/78/89 72/11/68 96/12/31 95/110/90
f 84/21/4 83/99/91 89/104/92 88/13/36
f 83/99/91 82/98/93 90/105/94 89/104/92
f 82/98/93 81/97/95 91/106/96 90/105/94
f 81/97/95 80/14/76 92/15/86 91/106/96
f 8/2/11 20/16/14 44/6/39 32/5/27
f 36/17/52 40/18/56 68/10/63 56/9/53
f 60/19/75 64/20/79 92/15/86 80/14/76
f 84/21/4 88/13/36 24/3/19 4/1/1
f 16/4/28 96/12/31 72/11/68 48/7/44
f 76/8/10 12/22/9 28/23/22 52/24/47
f 11/35/20 12/22/9 1/25/7 97/111/97
f 97/111/97 1/25/7 2/27/5 98/113/98
f 98/112/98 2/26/5 3/28/2 99/114/99
f 3/28/2 4/1/1 5/29/17 99/114/99
f 99/114/99 5/29/17 6/31/15 100/116/100
f 100/115/100 6/30/15 7/32/12 101/117/101
f 7/32/12 8/2/11 9/33/25 101/117/101
f 101/117/101 9/33/25 10/34/23 102/118/102
f 102/118/102 10/34/23 11/35/20 97/111/97
f 102/118/102 97/111/97 98/113/98 103/120/103
f 98/112/98 99/114/99 100/116/100 103/119/103
f 100/115/100 101/117/101 102/118/102 103/120/103
f 23/46/18 24/3/19 13/36/34 104/121/104
f 104/121/104 13/36/34 14/38/32 105/123/105
f 105/122/105 14/37/32 15/39/29 106/124/106
f 15/39/29 16/4/28 17/40/42 106/124/106
f 106/124/106 17/40/42 18/41/40 107/125/107
f 107/125/107 18/41/40 19/42/37 108/126/108
f 19/42/37 20/16/14 21/43/13 108/126/108
f 108/126/108 21/43/13 22/45/16 109/128/109
f 109/127/109 22/44/16 23/46/18 104/121/104
f 109/127/109 104/121/104 105/123/105 110/130/110
f 105/122/105 106/124/106 107/125/107 110/129/110
f 107/125/107 108/126/108 109/128/109 110/129/110
f 35/56/54 36/17/52 25/47/50 111/131/111
f 111/131/111 25/47/50 26/49/48 112/133/112
f 112/132/112 26/48/48 27/50/45 113/134/113
f 27/50/45 28/23/22 29/51/21 113/134/113
f 113/134/113 29/51/21 30/52/24 114/135/114
f 114/135/114 30/52/24 31/53/26 115/136/115
f 31/53/26 32/5/27 33/54/59 115/136/115
f 115/136/115 33/54/59 34/55/57 116/137/116
f 116/137/116 34/55/57 35/56/54 111/131/111
f 116/137/116 111/131/111 112/133/112 117/138/117
f 112/132/112 113/134/113 114/135/114 117/138/117
f 114/135/114 115/136/115 116/137/116 117/138/117
f 47/66/43 48/7/44 37/57/66 118/139/118
f 118/139/118 37/57/66 38/59/64 119/141/119
f 119/140/119 38/58/64 39/60/61 120/142/120
f 39/60/61 40/18/56 41/61/55 120/142/120
f 120/142/120 41/61/55 42/62/58 121/143/121
f 121/143/121 42/62/58 43/63/60 122/144/122
f 43/63/60 44/6/39 45/64/38 122/144/122
f 122/144/122 45/64/38 46/65/41 123/145/123
f 123/145/123 46/65/41 47/66/43 118/139/118
f 123/145/123 118/139/118 119/141/119 124/146/124
f 119/140/119 120/142/120 121/143/121 124/146/124
f 121/143/121 122/144/122 123/145/123 124/146/124
f 59/77/77 60/19/75 49/67/73 125/147/125
f 125/147/125 49/67/73 50/69/71 126/149/126
f 126/148/126 50/68/71 51/70/69 127/150/127
f 51/70/69 52/24/47 53/71/46 127/150/127
f 127/150/127 53/71/46 54/73/49 128/152/128
f 128/151/128 54/72/49 55/74/51 129/153/129
f 55/74/51 56/9/53 57/75/82 129/153/129
f 129/153/129 57/75/82 58/76/80 130/154/130
f 130/154/130 58/76/80 59/77/77 125/147/125
f 130/154/130 125/147/125 126/149/126 131/156/131
f 126/148/126 127/150/127 128/152/128 131/155/131
f 128/151/128 129/153/129 130/154/130 131/156/131
f 71/88/67 72/11/68 61/78/89 132/157/132
f 132/157/132 61/78/89 62/80/87 133/159/133
f 133/158/133 62/79/87 63/81/84 134/160/134
f 63/81/84 64/20/79 65/82/78 134/160/134
f 134/160/134 65/82/78 66/83/81 135/161/135
f 135/161/135 66/83/81 67/84/83 136/162/136
f 67/84/83 68/10/63 69/85/62 136/162/136
f 136/162/136 69/85/62 70/87/65 137/164/137
f 137/163/137 70/86/65 71/88/67 132/157/132
f 137/163/137 132/157/132 133/159/133 138/166/138
f 133/158/133 134/160/134 135/161/135 138/165/138
f 135/161/135 136/162/136 137/164/137 138/165/138
f 83/99/91 84/21/4 73/89/3 139/167/139
f 139/167/139 73/89/3 74/91/6 140/169/140
f 140/168/140 74/90/6 75/92/8 141/170/141
f 75/92/8 76/8/10 77/93/70 141/170/141
f 141/170/141 77/93/70 78/95/72 142/172/142
f 142/171/142 78/94/72 79/96/74 143/173/143
f 79/96/74 80/14/76 81/97/95 143/173/143
f 143/173/143 81/97/95 82/98/93 144/174/144
f 144/174/144 82/98/93 83/99/91 139/167/139
f 144/174/144 139/167/139 140/169/140 145/176/145
f 140/168/140 141/170/141 142/172/142 145/175/145
f 142/171/142 143/173/143 144/174/144 145/176/145
f 95/110/90 96/12/31 85/100/30 146/177/146
f 146/177/146 85/100/30 86/102/33 147/179/147
f 147/178/147 86/101/33 87/103/35 148/180/148
f 87/103/35 88/13/36 89/104/92 148/180/148
f 148/180/148 89/104/92 90/105/94 149/181/149
f 149/181/149 90/105/94 91/106/96 150/182/150
f 91/106/96 92/15/86 93/107/85 150/182/150
f 150/182/150 93/107/85 94/109/88 151/184/151
f 151/183/151 94/108/88 95/110/90 146/177/146
f 151/183/151 146/177/146 147/179/147 152/186/152
f 147/178/147 148/180/148 149/181/149 152/185/152
f 149/181/149 150/182/150 151/184/151 152/185/152
